# xmcd
#
# Track frame offsets:
#	150
#	14500
#	27087
#	42905
#	64120
#	77970
#	91250
#	104825
#	119437
#	133820
#
# Disc length: 1924
#
# Revision: 7
# Processed by: cddbd v1.5.1PL0 Copyright (c) Steve Scherf et al.
# Submitted via: ExactAudioCopy v0.90b3
# Normalized: r6:DSETVAR1
#
DISCID=8807820a
DTITLE=Various Artist - Greatest Country Hits Of The '80s Volume I
DYEAR=1995
DGENRE=Country
TTITLE0=Eddie Rabbit - I Love A Rainy Night
TTITLE1=Dwight Yoakam - Honky Tonk Man
TTITLE2=Highway 101 - The Bed You Made For Me
TTITLE3=Gary Morris - The Wind Beneath My Wings
TTITLE4=John Anderson - Swingin'
TTITLE5=Hank Williams Jr. - All My Rowdy Friends Are Coming Over Tonight
TTITLE6=Randy Travis - 1982
TTITLE7=The Forester Sisters - I Fell In Love Again Last Night
TTITLE8=Conway Twitty - Lost In The Feeling
TTITLE9=Emmylou Harris - Mister Sandman
EXTD=
EXTT0=Eddie Rabbitt
EXTT1=Dwight Yoakam
EXTT2=Highway 101
EXTT3=Gary Morris
EXTT4=John Anderson
EXTT5=Hank Williams Jr.
EXTT6=Randy Travis
EXTT7=Forester Sisters
EXTT8=Conway Twitty
EXTT9=
PLAYORDER=
